# Blender v3.6.1 OBJ File: ''
# www.blender.org
mtllib three_towers.mtl
o Cube_Cube.001
v -16.952003 0.212207 -5.489030
v 16.823526 0.212207 -5.871020
v 16.823526 -0.212207 -5.871020
v -16.952003 -0.212207 -5.489030
v 16.952003 0.212207 5.489030
v 16.952003 -0.212207 5.489030
v -16.823526 0.212207 5.871020
v -16.823526 -0.212207 5.871020
vt 0.375000 0.000000
vt 0.625000 0.000000
vt 0.625000 0.250000
vt 0.375000 0.250000
vt 0.375000 0.250000
vt 0.625000 0.250000
vt 0.625000 0.500000
vt 0.375000 0.500000
vt 0.375000 0.500000
vt 0.625000 0.500000
vt 0.625000 0.750000
vt 0.375000 0.750000
vt 0.375000 0.750000
vt 0.625000 0.750000
vt 0.625000 1.000000
vt 0.375000 1.000000
vt 0.125000 0.500000
vt 0.375000 0.500000
vt 0.125000 0.750000
vt 0.875000 0.500000
vt 0.875000 0.750000
vt 0.625000 0.750000
vn -0.0113 0.0000 -0.9999
vn 0.9999 0.0000 -0.0113
vn 0.0113 0.0000 0.9999
vn -0.9999 0.0000 0.0113
vn 0.0000 1.0000 -0.0000
vn -0.0000 -1.0000 0.0000
usemtl Material.009
s 1
f 1/1/1 2/2/1 3/3/1 4/4/1
f 2/5/2 5/6/2 6/7/2 3/8/2
f 5/9/3 7/10/3 8/11/3 6/12/3
f 7/13/4 1/14/4 4/15/4 8/16/4
f 2/17/5 1/18/5 7/13/5 5/19/5
f 6/7/6 8/20/6 4/21/6 3/22/6
o Cylinder.001_Cylinder.010
v 0.000000 0.306387 -0.433779
v 0.000000 9.971048 -0.433780
v 0.161992 9.971048 -0.417825
v 0.161992 0.306387 -0.417824
v 0.317758 9.971048 -0.370574
v 0.317758 0.306387 -0.370573
v 0.461314 9.971048 -0.293842
v 0.461314 0.306387 -0.293841
v 0.587141 9.971048 -0.190578
v 0.587141 0.306387 -0.190577
v 0.690404 9.971048 -0.064751
v 0.690404 0.306387 -0.064750
v 0.767136 9.971048 0.078804
v 0.767136 0.306387 0.078805
v 0.814388 9.971048 0.234571
v 0.814388 0.306387 0.234572
v 0.830342 9.971048 0.396562
v 0.830342 0.306387 0.396563
v 0.814388 9.971048 0.558554
v 0.814388 0.306387 0.558555
v 0.767136 9.971048 0.714321
v 0.767136 0.306387 0.714322
v 0.690404 9.971048 0.857876
v 0.690404 0.306387 0.857877
v 0.587141 9.971048 0.983703
v 0.587141 0.306387 0.983704
v 0.461314 9.971048 1.086967
v 0.461314 0.306387 1.086968
v 0.317758 9.971048 1.163699
v 0.317758 0.306387 1.163700
v 0.161992 9.971048 1.210950
v 0.161992 0.306387 1.210951
v 0.000000 9.971048 1.226905
v 0.000000 0.306387 1.226906
v -0.161992 9.971048 1.210950
v -0.161992 0.306387 1.210951
v -0.317758 9.971048 1.163699
v -0.317758 0.306387 1.163700
v -0.461314 9.971048 1.086967
v -0.461314 0.306387 1.086968
v -0.587141 9.971048 0.983703
v -0.587141 0.306387 0.983704
v -0.690404 9.971048 0.857876
v -0.690404 0.306387 0.857877
v -0.767136 9.971048 0.714321
v -0.767136 0.306387 0.714322
v -0.814388 9.971048 0.558554
v -0.814388 0.306387 0.558555
v -0.830342 9.971048 0.396562
v -0.830342 0.306387 0.396563
v -0.814388 9.971048 0.234571
v -0.814388 0.306387 0.234572
v -0.767136 9.971048 0.078804
v -0.767136 0.306387 0.078805
v -0.690404 9.971048 -0.064751
v -0.690404 0.306387 -0.064750
v -0.587141 9.971048 -0.190578
v -0.587141 0.306387 -0.190577
v -0.461314 9.971048 -0.293842
v -0.461314 0.306387 -0.293841
v -0.317758 9.971048 -0.370574
v -0.317758 0.306387 -0.370573
v -0.161992 9.971048 -0.417825
v -0.161992 0.306387 -0.417824
vt 1.000000 0.500000
vt 1.000000 1.000000
vt 0.968750 1.000000
vt 0.968750 0.500000
vt 0.937500 1.000000
vt 0.937500 0.500000
vt 0.906250 1.000000
vt 0.906250 0.500000
vt 0.875000 1.000000
vt 0.875000 0.500000
vt 0.843750 1.000000
vt 0.843750 0.500000
vt 0.812500 1.000000
vt 0.812500 0.500000
vt 0.781250 1.000000
vt 0.781250 0.500000
vt 0.750000 1.000000
vt 0.750000 0.500000
vt 0.718750 1.000000
vt 0.718750 0.500000
vt 0.687500 1.000000
vt 0.687500 0.500000
vt 0.656250 1.000000
vt 0.656250 0.500000
vt 0.625000 1.000000
vt 0.625000 0.500000
vt 0.593750 1.000000
vt 0.593750 0.500000
vt 0.562500 1.000000
vt 0.562500 0.500000
vt 0.531250 1.000000
vt 0.531250 0.500000
vt 0.500000 1.000000
vt 0.500000 0.500000
vt 0.468750 1.000000
vt 0.468750 0.500000
vt 0.437500 1.000000
vt 0.437500 0.500000
vt 0.406250 1.000000
vt 0.406250 0.500000
vt 0.375000 1.000000
vt 0.375000 0.500000
vt 0.343750 1.000000
vt 0.343750 0.500000
vt 0.312500 1.000000
vt 0.312500 0.500000
vt 0.281250 1.000000
vt 0.281250 0.500000
vt 0.250000 1.000000
vt 0.250000 0.500000
vt 0.218750 1.000000
vt 0.218750 0.500000
vt 0.187500 1.000000
vt 0.187500 0.500000
vt 0.156250 1.000000
vt 0.156250 0.500000
vt 0.125000 1.000000
vt 0.125000 0.500000
vt 0.093750 1.000000
vt 0.093750 0.500000
vt 0.062500 1.000000
vt 0.062500 0.500000
vt 0.296822 0.485388
vt 0.250000 0.490000
vt 0.203178 0.485388
vt 0.158156 0.471731
vt 0.116663 0.449553
vt 0.080294 0.419706
vt 0.050447 0.383337
vt 0.028269 0.341844
vt 0.014612 0.296822
vt 0.010000 0.250000
vt 0.014612 0.203178
vt 0.028269 0.158156
vt 0.050447 0.116663
vt 0.080294 0.080294
vt 0.116663 0.050447
vt 0.158156 0.028269
vt 0.203178 0.014612
vt 0.250000 0.010000
vt 0.296822 0.014612
vt 0.341844 0.028269
vt 0.383337 0.050447
vt 0.419706 0.080294
vt 0.449553 0.116663
vt 0.471731 0.158156
vt 0.485388 0.203178
vt 0.490000 0.250000
vt 0.485388 0.296822
vt 0.471731 0.341844
vt 0.449553 0.383337
vt 0.419706 0.419706
vt 0.383337 0.449553
vt 0.341844 0.471731
vt 0.031250 1.000000
vt 0.031250 0.500000
vt 0.000000 1.000000
vt 0.000000 0.500000
vt 0.750000 0.490000
vt 0.796822 0.485388
vt 0.841844 0.471731
vt 0.883337 0.449553
vt 0.919706 0.419706
vt 0.949553 0.383337
vt 0.971731 0.341844
vt 0.985388 0.296822
vt 0.990000 0.250000
vt 0.985388 0.203178
vt 0.971731 0.158156
vt 0.949553 0.116663
vt 0.919706 0.080294
vt 0.883337 0.050447
vt 0.841844 0.028269
vt 0.796822 0.014612
vt 0.750000 0.010000
vt 0.703178 0.014612
vt 0.658156 0.028269
vt 0.616663 0.050447
vt 0.580294 0.080294
vt 0.550447 0.116663
vt 0.528269 0.158156
vt 0.514612 0.203178
vt 0.510000 0.250000
vt 0.514612 0.296822
vt 0.528269 0.341844
vt 0.550447 0.383337
vt 0.580294 0.419706
vt 0.616663 0.449553
vt 0.658156 0.471731
vt 0.703178 0.485388
vn 0.0980 -0.0000 -0.9952
vn 0.2903 -0.0000 -0.9569
vn 0.4714 -0.0000 -0.8819
vn 0.6344 -0.0000 -0.7730
vn 0.7730 -0.0000 -0.6344
vn 0.8819 -0.0000 -0.4714
vn 0.9569 -0.0000 -0.2903
vn 0.9952 -0.0000 -0.0980
vn 0.9952 0.0000 0.0980
vn 0.9569 0.0000 0.2903
vn 0.8819 0.0000 0.4714
vn 0.7730 0.0000 0.6344
vn 0.6344 0.0000 0.7730
vn 0.4714 0.0000 0.8819
vn 0.2903 0.0000 0.9569
vn 0.0980 0.0000 0.9952
vn -0.0980 0.0000 0.9952
vn -0.2903 0.0000 0.9569
vn -0.4714 0.0000 0.8819
vn -0.6344 0.0000 0.7730
vn -0.7730 0.0000 0.6344
vn -0.8819 0.0000 0.4714
vn -0.9569 0.0000 0.2903
vn -0.9952 0.0000 0.0980
vn -0.9952 -0.0000 -0.0980
vn -0.9569 -0.0000 -0.2903
vn -0.8819 -0.0000 -0.4714
vn -0.7730 -0.0000 -0.6344
vn -0.6344 -0.0000 -0.7730
vn -0.4714 -0.0000 -0.8819
vn 0.0000 1.0000 -0.0000
vn -0.2903 -0.0000 -0.9569
vn -0.0980 -0.0000 -0.9952
vn 0.0000 -1.0000 0.0000
usemtl None
s off
f 9/23/7 10/24/7 11/25/7 12/26/7
f 12/26/8 11/25/8 13/27/8 14/28/8
f 14/28/9 13/27/9 15/29/9 16/30/9
f 16/30/10 15/29/10 17/31/10 18/32/10
f 18/32/11 17/31/11 19/33/11 20/34/11
f 20/34/12 19/33/12 21/35/12 22/36/12
f 22/36/13 21/35/13 23/37/13 24/38/13
f 24/38/14 23/37/14 25/39/14 26/40/14
f 26/40/15 25/39/15 27/41/15 28/42/15
f 28/42/16 27/41/16 29/43/16 30/44/16
f 30/44/17 29/43/17 31/45/17 32/46/17
f 32/46/18 31/45/18 33/47/18 34/48/18
f 34/48/19 33/47/19 35/49/19 36/50/19
f 36/50/20 35/49/20 37/51/20 38/52/20
f 38/52/21 37/51/21 39/53/21 40/54/21
f 40/54/22 39/53/22 41/55/22 42/56/22
f 42/56/23 41/55/23 43/57/23 44/58/23
f 44/58/24 43/57/24 45/59/24 46/60/24
f 46/60/25 45/59/25 47/61/25 48/62/25
f 48/62/26 47/61/26 49/63/26 50/64/26
f 50/64/27 49/63/27 51/65/27 52/66/27
f 52/66/28 51/65/28 53/67/28 54/68/28
f 54/68/29 53/67/29 55/69/29 56/70/29
f 56/70/30 55/69/30 57/71/30 58/72/30
f 58/72/31 57/71/31 59/73/31 60/74/31
f 60/74/32 59/73/32 61/75/32 62/76/32
f 62/76/33 61/75/33 63/77/33 64/78/33
f 64/78/34 63/77/34 65/79/34 66/80/34
f 66/80/35 65/79/35 67/81/35 68/82/35
f 68/82/36 67/81/36 69/83/36 70/84/36
f 11/85/37 10/86/37 71/87/37 69/88/37 67/89/37 65/90/37 63/91/37 61/92/37 59/93/37 57/94/37 55/95/37 53/96/37 51/97/37 49/98/37 47/99/37 45/100/37 43/101/37 41/102/37 39/103/37 37/104/37 35/105/37 33/106/37 31/107/37 29/108/37 27/109/37 25/110/37 23/111/37 21/112/37 19/113/37 17/114/37 15/115/37 13/116/37
f 70/84/38 69/83/38 71/117/38 72/118/38
f 72/118/39 71/117/39 10/119/39 9/120/39
f 9/121/40 12/122/40 14/123/40 16/124/40 18/125/40 20/126/40 22/127/40 24/128/40 26/129/40 28/130/40 30/131/40 32/132/40 34/133/40 36/134/40 38/135/40 40/136/40 42/137/40 44/138/40 46/139/40 48/140/40 50/141/40 52/142/40 54/143/40 56/144/40 58/145/40 60/146/40 62/147/40 64/148/40 66/149/40 68/150/40 70/151/40 72/152/40
o Cylinder.003_Cylinder.012
v 10.783126 0.306387 -0.433779
v 10.783126 9.971048 -0.433780
v 10.945119 9.971048 -0.417825
v 10.945119 0.306387 -0.417824
v 11.100884 9.971048 -0.370574
v 11.100884 0.306387 -0.370573
v 11.244439 9.971048 -0.293842
v 11.244439 0.306387 -0.293841
v 11.370267 9.971048 -0.190578
v 11.370267 0.306387 -0.190577
v 11.473531 9.971048 -0.064751
v 11.473531 0.306387 -0.064750
v 11.550262 9.971048 0.078804
v 11.550262 0.306387 0.078805
v 11.597513 9.971048 0.234571
v 11.597513 0.306387 0.234572
v 11.613468 9.971048 0.396562
v 11.613468 0.306387 0.396563
v 11.597513 9.971048 0.558554
v 11.597513 0.306387 0.558555
v 11.550262 9.971048 0.714321
v 11.550262 0.306387 0.714322
v 11.473531 9.971048 0.857876
v 11.473531 0.306387 0.857877
v 11.370267 9.971048 0.983703
v 11.370267 0.306387 0.983704
v 11.244439 9.971048 1.086967
v 11.244439 0.306387 1.086968
v 11.100884 9.971048 1.163699
v 11.100884 0.306387 1.163700
v 10.945119 9.971048 1.210950
v 10.945119 0.306387 1.210951
v 10.783126 9.971048 1.226905
v 10.783126 0.306387 1.226906
v 10.621134 9.971048 1.210950
v 10.621134 0.306387 1.210951
v 10.465367 9.971048 1.163699
v 10.465367 0.306387 1.163700
v 10.321813 9.971048 1.086967
v 10.321813 0.306387 1.086968
v 10.195985 9.971048 0.983703
v 10.195985 0.306387 0.983704
v 10.092721 9.971048 0.857876
v 10.092721 0.306387 0.857877
v 10.015989 9.971048 0.714321
v 10.015989 0.306387 0.714322
v 9.968739 9.971048 0.558554
v 9.968739 0.306387 0.558555
v 9.952784 9.971048 0.396562
v 9.952784 0.306387 0.396563
v 9.968739 9.971048 0.234571
v 9.968739 0.306387 0.234572
v 10.015989 9.971048 0.078804
v 10.015989 0.306387 0.078805
v 10.092721 9.971048 -0.064751
v 10.092721 0.306387 -0.064750
v 10.195985 9.971048 -0.190578
v 10.195985 0.306387 -0.190577
v 10.321813 9.971048 -0.293842
v 10.321813 0.306387 -0.293841
v 10.465367 9.971048 -0.370574
v 10.465367 0.306387 -0.370573
v 10.621134 9.971048 -0.417825
v 10.621134 0.306387 -0.417824
vt 1.000000 0.500000
vt 1.000000 1.000000
vt 0.968750 1.000000
vt 0.968750 0.500000
vt 0.937500 1.000000
vt 0.937500 0.500000
vt 0.906250 1.000000
vt 0.906250 0.500000
vt 0.875000 1.000000
vt 0.875000 0.500000
vt 0.843750 1.000000
vt 0.843750 0.500000
vt 0.812500 1.000000
vt 0.812500 0.500000
vt 0.781250 1.000000
vt 0.781250 0.500000
vt 0.750000 1.000000
vt 0.750000 0.500000
vt 0.718750 1.000000
vt 0.718750 0.500000
vt 0.687500 1.000000
vt 0.687500 0.500000
vt 0.656250 1.000000
vt 0.656250 0.500000
vt 0.625000 1.000000
vt 0.625000 0.500000
vt 0.593750 1.000000
vt 0.593750 0.500000
vt 0.562500 1.000000
vt 0.562500 0.500000
vt 0.531250 1.000000
vt 0.531250 0.500000
vt 0.500000 1.000000
vt 0.500000 0.500000
vt 0.468750 1.000000
vt 0.468750 0.500000
vt 0.437500 1.000000
vt 0.437500 0.500000
vt 0.406250 1.000000
vt 0.406250 0.500000
vt 0.375000 1.000000
vt 0.375000 0.500000
vt 0.343750 1.000000
vt 0.343750 0.500000
vt 0.312500 1.000000
vt 0.312500 0.500000
vt 0.281250 1.000000
vt 0.281250 0.500000
vt 0.250000 1.000000
vt 0.250000 0.500000
vt 0.218750 1.000000
vt 0.218750 0.500000
vt 0.187500 1.000000
vt 0.187500 0.500000
vt 0.156250 1.000000
vt 0.156250 0.500000
vt 0.125000 1.000000
vt 0.125000 0.500000
vt 0.093750 1.000000
vt 0.093750 0.500000
vt 0.062500 1.000000
vt 0.062500 0.500000
vt 0.296822 0.485388
vt 0.250000 0.490000
vt 0.203178 0.485388
vt 0.158156 0.471731
vt 0.116663 0.449553
vt 0.080294 0.419706
vt 0.050447 0.383337
vt 0.028269 0.341844
vt 0.014612 0.296822
vt 0.010000 0.250000
vt 0.014612 0.203178
vt 0.028269 0.158156
vt 0.050447 0.116663
vt 0.080294 0.080294
vt 0.116663 0.050447
vt 0.158156 0.028269
vt 0.203178 0.014612
vt 0.250000 0.010000
vt 0.296822 0.014612
vt 0.341844 0.028269
vt 0.383337 0.050447
vt 0.419706 0.080294
vt 0.449553 0.116663
vt 0.471731 0.158156
vt 0.485388 0.203178
vt 0.490000 0.250000
vt 0.485388 0.296822
vt 0.471731 0.341844
vt 0.449553 0.383337
vt 0.419706 0.419706
vt 0.383337 0.449553
vt 0.341844 0.471731
vt 0.031250 1.000000
vt 0.031250 0.500000
vt 0.000000 1.000000
vt 0.000000 0.500000
vt 0.750000 0.490000
vt 0.796822 0.485388
vt 0.841844 0.471731
vt 0.883337 0.449553
vt 0.919706 0.419706
vt 0.949553 0.383337
vt 0.971731 0.341844
vt 0.985388 0.296822
vt 0.990000 0.250000
vt 0.985388 0.203178
vt 0.971731 0.158156
vt 0.949553 0.116663
vt 0.919706 0.080294
vt 0.883337 0.050447
vt 0.841844 0.028269
vt 0.796822 0.014612
vt 0.750000 0.010000
vt 0.703178 0.014612
vt 0.658156 0.028269
vt 0.616663 0.050447
vt 0.580294 0.080294
vt 0.550447 0.116663
vt 0.528269 0.158156
vt 0.514612 0.203178
vt 0.510000 0.250000
vt 0.514612 0.296822
vt 0.528269 0.341844
vt 0.550447 0.383337
vt 0.580294 0.419706
vt 0.616663 0.449553
vt 0.658156 0.471731
vt 0.703178 0.485388
vn 0.0980 -0.0000 -0.9952
vn 0.2903 -0.0000 -0.9569
vn 0.4714 -0.0000 -0.8819
vn 0.6344 -0.0000 -0.7730
vn 0.7730 -0.0000 -0.6344
vn 0.8819 -0.0000 -0.4714
vn 0.9569 -0.0000 -0.2903
vn 0.9952 0.0000 -0.0980
vn 0.9952 0.0000 0.0980
vn 0.9569 -0.0000 0.2903
vn 0.8819 0.0000 0.4714
vn 0.7730 0.0000 0.6344
vn 0.6344 0.0000 0.7730
vn 0.4714 0.0000 0.8819
vn 0.2903 0.0000 0.9569
vn 0.0980 0.0000 0.9952
vn -0.0980 0.0000 0.9952
vn -0.2903 0.0000 0.9569
vn -0.4714 0.0000 0.8819
vn -0.6344 0.0000 0.7730
vn -0.7730 0.0000 0.6344
vn -0.8819 0.0000 0.4714
vn -0.9569 0.0000 0.2903
vn -0.9952 0.0000 0.0980
vn -0.9952 -0.0000 -0.0980
vn -0.9569 -0.0000 -0.2903
vn -0.8819 -0.0000 -0.4714
vn -0.7730 -0.0000 -0.6344
vn -0.6344 -0.0000 -0.7730
vn -0.4714 -0.0000 -0.8819
vn 0.0000 1.0000 0.0000
vn -0.2903 -0.0000 -0.9569
vn -0.0980 -0.0000 -0.9952
vn 0.0000 -1.0000 0.0000
usemtl None
s off
f 73/153/41 74/154/41 75/155/41 76/156/41
f 76/156/42 75/155/42 77/157/42 78/158/42
f 78/158/43 77/157/43 79/159/43 80/160/43
f 80/160/44 79/159/44 81/161/44 82/162/44
f 82/162/45 81/161/45 83/163/45 84/164/45
f 84/164/46 83/163/46 85/165/46 86/166/46
f 86/166/47 85/165/47 87/167/47 88/168/47
f 88/168/48 87/167/48 89/169/48 90/170/48
f 90/170/49 89/169/49 91/171/49 92/172/49
f 92/172/50 91/171/50 93/173/50 94/174/50
f 94/174/51 93/173/51 95/175/51 96/176/51
f 96/176/52 95/175/52 97/177/52 98/178/52
f 98/178/53 97/177/53 99/179/53 100/180/53
f 100/180/54 99/179/54 101/181/54 102/182/54
f 102/182/55 101/181/55 103/183/55 104/184/55
f 104/184/56 103/183/56 105/185/56 106/186/56
f 106/186/57 105/185/57 107/187/57 108/188/57
f 108/188/58 107/187/58 109/189/58 110/190/58
f 110/190/59 109/189/59 111/191/59 112/192/59
f 112/192/60 111/191/60 113/193/60 114/194/60
f 114/194/61 113/193/61 115/195/61 116/196/61
f 116/196/62 115/195/62 117/197/62 118/198/62
f 118/198/63 117/197/63 119/199/63 120/200/63
f 120/200/64 119/199/64 121/201/64 122/202/64
f 122/202/65 121/201/65 123/203/65 124/204/65
f 124/204/66 123/203/66 125/205/66 126/206/66
f 126/206/67 125/205/67 127/207/67 128/208/67
f 128/208/68 127/207/68 129/209/68 130/210/68
f 130/210/69 129/209/69 131/211/69 132/212/69
f 132/212/70 131/211/70 133/213/70 134/214/70
f 75/215/71 74/216/71 135/217/71 133/218/71 131/219/71 129/220/71 127/221/71 125/222/71 123/223/71 121/224/71 119/225/71 117/226/71 115/227/71 113/228/71 111/229/71 109/230/71 107/231/71 105/232/71 103/233/71 101/234/71 99/235/71 97/236/71 95/237/71 93/238/71 91/239/71 89/240/71 87/241/71 85/242/71 83/243/71 81/244/71 79/245/71 77/246/71
f 134/214/72 133/213/72 135/247/72 136/248/72
f 136/248/73 135/247/73 74/249/73 73/250/73
f 73/251/74 76/252/74 78/253/74 80/254/74 82/255/74 84/256/74 86/257/74 88/258/74 90/259/74 92/260/74 94/261/74 96/262/74 98/263/74 100/264/74 102/265/74 104/266/74 106/267/74 108/268/74 110/269/74 112/270/74 114/271/74 116/272/74 118/273/74 120/274/74 122/275/74 124/276/74 126/277/74 128/278/74 130/279/74 132/280/74 134/281/74 136/282/74
o Cylinder.004_Cylinder.013
v -11.528494 0.306387 -0.433779
v -11.528494 9.971048 -0.433780
v -11.366502 9.971048 -0.417825
v -11.366502 0.306387 -0.417824
v -11.210735 9.971048 -0.370574
v -11.210735 0.306387 -0.370573
v -11.067181 9.971048 -0.293842
v -11.067181 0.306387 -0.293841
v -10.941353 9.971048 -0.190578
v -10.941353 0.306387 -0.190577
v -10.838089 9.971048 -0.064751
v -10.838089 0.306387 -0.064750
v -10.761357 9.971048 0.078804
v -10.761357 0.306387 0.078805
v -10.714107 9.971048 0.234571
v -10.714107 0.306387 0.234572
v -10.698152 9.971048 0.396562
v -10.698152 0.306387 0.396563
v -10.714107 9.971048 0.558554
v -10.714107 0.306387 0.558555
v -10.761357 9.971048 0.714321
v -10.761357 0.306387 0.714322
v -10.838089 9.971048 0.857876
v -10.838089 0.306387 0.857877
v -10.941353 9.971048 0.983703
v -10.941353 0.306387 0.983704
v -11.067181 9.971048 1.086967
v -11.067181 0.306387 1.086968
v -11.210735 9.971048 1.163699
v -11.210735 0.306387 1.163700
v -11.366502 9.971048 1.210950
v -11.366502 0.306387 1.210951
v -11.528494 9.971048 1.226905
v -11.528494 0.306387 1.226906
v -11.690486 9.971048 1.210950
v -11.690486 0.306387 1.210951
v -11.846252 9.971048 1.163699
v -11.846252 0.306387 1.163700
v -11.989807 9.971048 1.086967
v -11.989807 0.306387 1.086968
v -12.115635 9.971048 0.983703
v -12.115635 0.306387 0.983704
v -12.218899 9.971048 0.857876
v -12.218899 0.306387 0.857877
v -12.295630 9.971048 0.714321
v -12.295630 0.306387 0.714322
v -12.342881 9.971048 0.558554
v -12.342881 0.306387 0.558555
v -12.358836 9.971048 0.396562
v -12.358836 0.306387 0.396563
v -12.342881 9.971048 0.234571
v -12.342881 0.306387 0.234572
v -12.295630 9.971048 0.078804
v -12.295630 0.306387 0.078805
v -12.218899 9.971048 -0.064751
v -12.218899 0.306387 -0.064750
v -12.115635 9.971048 -0.190578
v -12.115635 0.306387 -0.190577
v -11.989807 9.971048 -0.293842
v -11.989807 0.306387 -0.293841
v -11.846252 9.971048 -0.370574
v -11.846252 0.306387 -0.370573
v -11.690486 9.971048 -0.417825
v -11.690486 0.306387 -0.417824
vt 1.000000 0.500000
vt 1.000000 1.000000
vt 0.968750 1.000000
vt 0.968750 0.500000
vt 0.937500 1.000000
vt 0.937500 0.500000
vt 0.906250 1.000000
vt 0.906250 0.500000
vt 0.875000 1.000000
vt 0.875000 0.500000
vt 0.843750 1.000000
vt 0.843750 0.500000
vt 0.812500 1.000000
vt 0.812500 0.500000
vt 0.781250 1.000000
vt 0.781250 0.500000
vt 0.750000 1.000000
vt 0.750000 0.500000
vt 0.718750 1.000000
vt 0.718750 0.500000
vt 0.687500 1.000000
vt 0.687500 0.500000
vt 0.656250 1.000000
vt 0.656250 0.500000
vt 0.625000 1.000000
vt 0.625000 0.500000
vt 0.593750 1.000000
vt 0.593750 0.500000
vt 0.562500 1.000000
vt 0.562500 0.500000
vt 0.531250 1.000000
vt 0.531250 0.500000
vt 0.500000 1.000000
vt 0.500000 0.500000
vt 0.468750 1.000000
vt 0.468750 0.500000
vt 0.437500 1.000000
vt 0.437500 0.500000
vt 0.406250 1.000000
vt 0.406250 0.500000
vt 0.375000 1.000000
vt 0.375000 0.500000
vt 0.343750 1.000000
vt 0.343750 0.500000
vt 0.312500 1.000000
vt 0.312500 0.500000
vt 0.281250 1.000000
vt 0.281250 0.500000
vt 0.250000 1.000000
vt 0.250000 0.500000
vt 0.218750 1.000000
vt 0.218750 0.500000
vt 0.187500 1.000000
vt 0.187500 0.500000
vt 0.156250 1.000000
vt 0.156250 0.500000
vt 0.125000 1.000000
vt 0.125000 0.500000
vt 0.093750 1.000000
vt 0.093750 0.500000
vt 0.062500 1.000000
vt 0.062500 0.500000
vt 0.296822 0.485388
vt 0.250000 0.490000
vt 0.203178 0.485388
vt 0.158156 0.471731
vt 0.116663 0.449553
vt 0.080294 0.419706
vt 0.050447 0.383337
vt 0.028269 0.341844
vt 0.014612 0.296822
vt 0.010000 0.250000
vt 0.014612 0.203178
vt 0.028269 0.158156
vt 0.050447 0.116663
vt 0.080294 0.080294
vt 0.116663 0.050447
vt 0.158156 0.028269
vt 0.203178 0.014612
vt 0.250000 0.010000
vt 0.296822 0.014612
vt 0.341844 0.028269
vt 0.383337 0.050447
vt 0.419706 0.080294
vt 0.449553 0.116663
vt 0.471731 0.158156
vt 0.485388 0.203178
vt 0.490000 0.250000
vt 0.485388 0.296822
vt 0.471731 0.341844
vt 0.449553 0.383337
vt 0.419706 0.419706
vt 0.383337 0.449553
vt 0.341844 0.471731
vt 0.031250 1.000000
vt 0.031250 0.500000
vt 0.000000 1.000000
vt 0.000000 0.500000
vt 0.750000 0.490000
vt 0.796822 0.485388
vt 0.841844 0.471731
vt 0.883337 0.449553
vt 0.919706 0.419706
vt 0.949553 0.383337
vt 0.971731 0.341844
vt 0.985388 0.296822
vt 0.990000 0.250000
vt 0.985388 0.203178
vt 0.971731 0.158156
vt 0.949553 0.116663
vt 0.919706 0.080294
vt 0.883337 0.050447
vt 0.841844 0.028269
vt 0.796822 0.014612
vt 0.750000 0.010000
vt 0.703178 0.014612
vt 0.658156 0.028269
vt 0.616663 0.050447
vt 0.580294 0.080294
vt 0.550447 0.116663
vt 0.528269 0.158156
vt 0.514612 0.203178
vt 0.510000 0.250000
vt 0.514612 0.296822
vt 0.528269 0.341844
vt 0.550447 0.383337
vt 0.580294 0.419706
vt 0.616663 0.449553
vt 0.658156 0.471731
vt 0.703178 0.485388
vn 0.0980 -0.0000 -0.9952
vn 0.2903 -0.0000 -0.9569
vn 0.4714 -0.0000 -0.8819
vn 0.6344 -0.0000 -0.7730
vn 0.7730 -0.0000 -0.6344
vn 0.8819 -0.0000 -0.4714
vn 0.9569 -0.0000 -0.2903
vn 0.9952 -0.0000 -0.0980
vn 0.9952 -0.0000 0.0980
vn 0.9569 -0.0000 0.2903
vn 0.8819 0.0000 0.4714
vn 0.7730 0.0000 0.6344
vn 0.6344 0.0000 0.7730
vn 0.4714 0.0000 0.8819
vn 0.2903 0.0000 0.9569
vn 0.0980 0.0000 0.9952
vn -0.0980 0.0000 0.9952
vn -0.2903 0.0000 0.9569
vn -0.4714 0.0000 0.8819
vn -0.6344 0.0000 0.7730
vn -0.7730 0.0000 0.6344
vn -0.8819 0.0000 0.4714
vn -0.9569 0.0000 0.2903
vn -0.9952 0.0000 0.0980
vn -0.9952 -0.0000 -0.0980
vn -0.9569 -0.0000 -0.2903
vn -0.8819 -0.0000 -0.4714
vn -0.7730 -0.0000 -0.6344
vn -0.6344 -0.0000 -0.7730
vn -0.4714 -0.0000 -0.8819
vn 0.0000 1.0000 0.0000
vn -0.2903 -0.0000 -0.9569
vn -0.0980 -0.0000 -0.9952
vn 0.0000 -1.0000 0.0000
usemtl None
s off
f 137/283/75 138/284/75 139/285/75 140/286/75
f 140/286/76 139/285/76 141/287/76 142/288/76
f 142/288/77 141/287/77 143/289/77 144/290/77
f 144/290/78 143/289/78 145/291/78 146/292/78
f 146/292/79 145/291/79 147/293/79 148/294/79
f 148/294/80 147/293/80 149/295/80 150/296/80
f 150/296/81 149/295/81 151/297/81 152/298/81
f 152/298/82 151/297/82 153/299/82 154/300/82
f 154/300/83 153/299/83 155/301/83 156/302/83
f 156/302/84 155/301/84 157/303/84 158/304/84
f 158/304/85 157/303/85 159/305/85 160/306/85
f 160/306/86 159/305/86 161/307/86 162/308/86
f 162/308/87 161/307/87 163/309/87 164/310/87
f 164/310/88 163/309/88 165/311/88 166/312/88
f 166/312/89 165/311/89 167/313/89 168/314/89
f 168/314/90 167/313/90 169/315/90 170/316/90
f 170/316/91 169/315/91 171/317/91 172/318/91
f 172/318/92 171/317/92 173/319/92 174/320/92
f 174/320/93 173/319/93 175/321/93 176/322/93
f 176/322/94 175/321/94 177/323/94 178/324/94
f 178/324/95 177/323/95 179/325/95 180/326/95
f 180/326/96 179/325/96 181/327/96 182/328/96
f 182/328/97 181/327/97 183/329/97 184/330/97
f 184/330/98 183/329/98 185/331/98 186/332/98
f 186/332/99 185/331/99 187/333/99 188/334/99
f 188/334/100 187/333/100 189/335/100 190/336/100
f 190/336/101 189/335/101 191/337/101 192/338/101
f 192/338/102 191/337/102 193/339/102 194/340/102
f 194/340/103 193/339/103 195/341/103 196/342/103
f 196/342/104 195/341/104 197/343/104 198/344/104
f 139/345/105 138/346/105 199/347/105 197/348/105 195/349/105 193/350/105 191/351/105 189/352/105 187/353/105 185/354/105 183/355/105 181/356/105 179/357/105 177/358/105 175/359/105 173/360/105 171/361/105 169/362/105 167/363/105 165/364/105 163/365/105 161/366/105 159/367/105 157/368/105 155/369/105 153/370/105 151/371/105 149/372/105 147/373/105 145/374/105 143/375/105 141/376/105
f 198/344/106 197/343/106 199/377/106 200/378/106
f 200/378/107 199/377/107 138/379/107 137/380/107
f 137/381/108 140/382/108 142/383/108 144/384/108 146/385/108 148/386/108 150/387/108 152/388/108 154/389/108 156/390/108 158/391/108 160/392/108 162/393/108 164/394/108 166/395/108 168/396/108 170/397/108 172/398/108 174/399/108 176/400/108 178/401/108 180/402/108 182/403/108 184/404/108 186/405/108 188/406/108 190/407/108 192/408/108 194/409/108 196/410/108 198/411/108 200/412/108
